<svg id="svg" version="1.1" xmlns="http://www.w3.org/2000/svg" xmlns:xlink="http://www.w3.org/1999/xlink" width="75" height="75" viewBox="0, 0, 75, 75"><g id="svgg"><path id="path0" d="M37.250 9.207 C 36.975 9.301,36.525 9.458,36.250 9.556 C 33.903 10.392,32.515 13.308,32.388 17.667 C 32.297 20.782,32.021 21.285,30.485 21.137 C 30.095 21.100,29.865 20.964,29.731 20.693 C 29.500 20.228,28.329 19.000,28.117 19.000 C 28.035 19.000,27.645 18.719,27.251 18.375 C 26.857 18.031,26.020 17.498,25.392 17.189 C 24.764 16.881,24.120 16.562,23.961 16.481 C 23.801 16.400,23.412 16.333,23.095 16.333 C 22.779 16.333,22.473 16.258,22.417 16.167 C 22.283 15.950,21.051 15.950,20.917 16.167 C 20.860 16.258,20.640 16.333,20.428 16.333 C 19.079 16.333,15.605 19.786,14.392 22.333 C 13.730 23.722,13.613 24.195,13.621 25.436 C 13.630 26.826,13.982 27.998,14.667 28.913 C 15.273 29.723,17.367 31.667,17.634 31.667 C 17.715 31.667,17.917 31.817,18.083 32.000 C 18.249 32.183,18.476 32.333,18.587 32.333 C 20.017 32.333,21.939 34.027,21.461 34.866 C 20.913 35.829,20.283 35.912,18.850 35.208 C 14.974 33.305,11.336 35.857,10.714 40.917 C 10.669 41.283,10.565 41.655,10.483 41.742 C 10.275 41.962,10.291 46.287,10.500 46.417 C 10.592 46.473,10.667 46.668,10.667 46.849 C 10.667 48.076,12.826 50.333,14.000 50.333 C 14.172 50.333,14.353 50.397,14.402 50.476 C 14.650 50.877,18.861 50.797,20.833 50.353 C 21.246 50.261,21.808 50.133,22.083 50.070 C 22.358 50.007,22.658 49.897,22.750 49.826 C 23.065 49.581,24.130 49.469,24.460 49.645 C 25.329 50.110,25.272 51.391,24.304 53.130 C 24.137 53.431,24.000 53.810,24.000 53.972 C 24.000 54.134,23.931 54.338,23.846 54.425 C 23.298 54.989,23.008 58.928,23.421 60.200 C 24.464 63.416,28.980 65.444,33.417 64.689 C 35.324 64.364,35.356 64.355,36.750 63.740 C 39.130 62.690,40.667 59.745,40.667 56.235 C 40.667 53.745,42.426 52.571,43.172 54.563 C 43.427 55.245,43.728 55.896,43.835 56.000 C 43.964 56.125,45.391 57.881,45.583 58.151 C 45.798 58.452,47.543 60.198,47.849 60.418 C 47.978 60.511,48.383 60.814,48.750 61.093 C 51.466 63.156,54.759 63.593,57.167 62.210 C 58.448 61.474,60.590 59.254,61.161 58.070 C 61.686 56.982,61.895 54.828,61.500 54.583 C 61.408 54.527,61.334 54.354,61.336 54.198 C 61.341 53.620,60.216 51.773,59.225 50.734 C 57.879 49.322,57.619 48.917,57.819 48.544 C 57.905 48.382,58.015 48.123,58.063 47.967 C 58.226 47.436,59.126 47.109,59.725 47.362 C 60.844 47.834,66.247 47.663,67.410 47.118 C 72.025 44.957,72.085 39.966,67.523 37.682 C 66.474 37.157,64.028 36.333,63.517 36.333 C 63.335 36.333,63.140 36.258,63.083 36.167 C 63.027 36.075,62.816 35.999,62.615 35.997 C 62.045 35.994,60.965 35.570,60.525 35.177 C 59.765 34.501,60.503 32.668,61.536 32.667 C 61.888 32.667,63.277 31.916,63.812 31.437 C 64.458 30.858,65.667 28.854,65.667 28.362 C 65.667 28.199,65.757 27.977,65.867 27.867 C 66.143 27.590,66.150 24.358,65.875 23.775 C 65.760 23.532,65.573 23.128,65.458 22.877 C 65.344 22.627,65.137 22.271,65.000 22.086 C 62.028 18.103,56.565 16.120,53.167 17.792 C 51.184 18.767,50.813 19.135,50.429 20.503 C 49.725 23.011,47.620 24.005,46.774 22.229 C 46.408 21.463,46.689 20.440,47.656 19.016 L 48.333 18.018 48.333 16.241 C 48.333 12.828,46.069 10.208,42.500 9.495 C 41.996 9.394,41.353 9.241,41.072 9.156 C 40.406 8.953,37.892 8.987,37.250 9.207 M42.667 28.576 C 42.987 28.639,43.400 28.751,43.583 28.827 C 51.184 31.956,53.179 40.594,47.554 46.026 C 45.192 48.308,40.168 49.556,37.500 48.525 C 34.042 47.188,31.496 44.776,30.846 42.222 C 30.734 41.779,30.569 41.281,30.480 41.115 C 30.258 40.700,30.267 36.333,30.491 36.109 C 30.588 36.012,30.667 35.808,30.667 35.654 C 30.667 33.235,35.539 28.679,38.142 28.664 C 38.385 28.663,38.696 28.586,38.833 28.494 C 39.093 28.320,41.625 28.375,42.667 28.576 " stroke="none" fill="#f90404" fill-rule="evenodd"></path><path id="path2" d="M39.801 31.088 C 39.752 31.137,39.296 31.244,38.788 31.327 C 34.122 32.087,31.440 38.275,34.055 42.250 C 34.460 42.866,36.189 44.667,36.376 44.667 C 36.450 44.667,36.712 44.798,36.957 44.958 C 37.786 45.502,38.573 45.662,40.427 45.664 C 43.740 45.669,45.633 44.545,46.984 41.772 C 48.183 39.312,48.266 37.807,47.319 35.710 C 47.144 35.322,47.000 34.969,47.000 34.927 C 47.000 34.714,45.927 33.302,45.534 32.998 C 44.031 31.835,43.741 31.672,42.864 31.498 C 42.343 31.395,41.645 31.241,41.314 31.155 C 40.647 30.983,39.937 30.952,39.801 31.088 " stroke="none" fill="#ffff00" fill-rule="evenodd"></path></g></svg>